<svg version="1.1" xmlns="http://www.w3.org/2000/svg" viewBox="0 0 323.8455036361215 454.2704026036667" width="647.691007272243" height="908.5408052073334">
  <!-- svg-source:excalidraw -->
  
  <defs>
    <style>
      @font-face {
        font-family: "Virgil";
        src: url("https://excalidraw.com/Virgil.woff2");
      }
      @font-face {
        font-family: "Cascadia";
        src: url("https://excalidraw.com/Cascadia.woff2");
      }
    </style>
  </defs>
  <g stroke-linecap="round" transform="translate(14.080598959375948 14.12980054193099) rotate(0 149.8824523383728 139.10965107655215)"><path d="M-0.97 1.05 C66.63 -3.11, 134.35 -0.56, 299.9 0.78 M0.18 0.57 C110.7 1.7, 221.29 1.51, 299.05 0.25 M299.81 1.08 C302.2 70.22, 301.03 137.72, 301.09 276.74 M299.99 -0.31 C301.1 61.26, 302.38 124.69, 299.26 278.36 M300.99 278.9 C224.01 277.92, 145.19 278.45, 1.13 277.18 M300.48 278.66 C196.67 277.03, 92.47 278.1, 0.2 278.29 M1.31 278.07 C2.06 200.3, 0.12 124.16, 0.17 -0.76 M0.01 277.92 C0.96 213.29, 0.56 148.49, -0.24 -0.21" stroke="#000000" stroke-width="1" fill="none"></path></g><g stroke-linecap="round"><g transform="translate(34.78879812314335 31.132151027954706) rotate(0 129.13766008076016 123.03606044071483)"><path d="M0.08 -0.99 C100.28 95.93, 199.47 191.25, 258.19 247.07 M0.3 -0.04 C57.7 52.89, 113.39 107.67, 256.99 246.56" stroke="#000000" stroke-width="1" fill="none"></path></g></g><g stroke-linecap="round"><g transform="translate(32.298707672796354 274.03145925271025) rotate(0 132.15047774997674 -120.69930135905145)"><path d="M1.12 1.22 C97.77 -88.13, 196.27 -178.07, 262.21 -242.32 M0.5 -0.2 C97.9 -91.16, 197.43 -182.53, 263.81 -242.62" stroke="#000000" stroke-width="1" fill="none"></path></g></g><g stroke-linecap="round" transform="translate(32.19288306665203 230.19017176284984) rotate(0 105.92766343247547 23.11026653743724)"><path d="M-0.98 -0.54 L210.24 0.94 L211.59 46.47 L-0.9 45.39" stroke="none" stroke-width="0" fill="white"></path><path d="M0.16 0.93 C48.28 -0.63, 92.77 -1.35, 213.21 0.82 M-0.86 0.31 C61.79 1.03, 125.32 0.6, 212.47 0.76 M213.58 -1.92 C210.36 19.08, 210.29 35.29, 211.04 44.88 M211.19 0.18 C211.89 9.93, 212.39 19.82, 212.32 47.18 M213.21 44.97 C155.75 47.48, 97.57 48.02, 1.07 47.36 M212.1 46.3 C165.04 47.04, 118.47 48.2, -0.09 46.83 M0.21 45.23 C-1.05 33.54, 0.86 23.16, -0.78 -0.69 M-0.31 45.95 C-0.59 31.9, -0.23 16.23, -0.32 -0.16" stroke="#000000" stroke-width="1" fill="none"></path></g><g transform="translate(50.33953270880238 239.02204605539788) rotate(0 88.5 16)"><text x="0" y="22" font-family="Virgil, Segoe UI Emoji" font-size="25.549821122620276px" fill="#000000" text-anchor="start" style="white-space: pre;" direction="ltr">Jammi kebabai</text></g><g transform="translate(35.266695898103535 308.9792987650266) rotate(0 87.50813734497444 15.968638201637674)"><text x="0" y="21.937276403275362" font-family="Virgil, Segoe UI Emoji" font-size="25.54982112262028px" fill="#000000" text-anchor="start" style="white-space: pre;" direction="ltr">Stoties g. 22</text></g><g transform="translate(36.06512780818912 349.01495597056174) rotate(0 116.5 16)"><text x="0" y="22" font-family="Virgil, Segoe UI Emoji" font-size="25.549821122620273px" fill="#000000" text-anchor="start" style="white-space: pre;" direction="ltr">1.5 km / 45-60 min</text></g><g transform="translate(29.94008720748161 381.74125919625607) rotate(0 34.5 17)"><text x="0" y="24" font-family="Virgil, Segoe UI Emoji" font-size="25.549821122620255px" fill="#000000" text-anchor="start" style="white-space: pre;" direction="ltr">👍7.5</text></g><g stroke-linecap="round" transform="translate(10 10) rotate(0 150.7895693040357 217.13520130183335)"><path d="M-0.45 -1.43 C105.07 -2.47, 209.87 -0.36, 301.62 1.02 M-0.19 0.63 C115.74 -0.79, 233.51 -0.81, 301.79 -0.3 M302.51 -0.67 C299.67 100.67, 299.94 202.28, 302.43 434.74 M301.6 0.39 C300.52 172.1, 301.22 343.6, 302.08 434.58 M302.54 434.68 C191.73 433.49, 80.91 433.56, 1.24 434.13 M301.68 434.35 C189.9 432.54, 78.53 433.24, 0.01 433.99 M0.81 433.96 C-0.97 317.91, 0.32 202.93, 0.67 -0.33 M-0.41 434.51 C1.02 311.07, 0.86 187.53, -0.41 -0.23" stroke="#000000" stroke-width="1" fill="none"></path></g></svg>